<svg width="172" height="33" viewBox="0 0 172 33" fill="none" xmlns="http://www.w3.org/2000/svg">
<g id="Group 12">
<path id="Vector" d="M128.483 25.2778C128.483 24.9333 128.763 24.654 129.107 24.654H132.054C132.399 24.654 132.678 24.3747 132.678 24.0302V12.999C132.678 12.6545 132.399 12.3752 132.054 12.3752H129.107C128.763 12.3752 128.483 12.096 128.483 11.7514V9.76277C128.483 9.41826 128.763 9.13898 129.107 9.13898H136.153C136.498 9.13898 136.777 9.41826 136.777 9.76277V10.4971C136.777 11.0914 137.584 11.393 138.033 11.0034C138.084 10.9592 138.136 10.9151 138.188 10.8713C138.747 10.4144 139.377 10.0147 140.076 9.67201C140.775 9.32934 141.538 9.06283 142.364 8.87246C143.19 8.6694 144.073 8.56787 145.014 8.56787C145.294 8.56787 145.643 8.58056 146.063 8.60594C146.294 8.61295 146.52 8.6277 146.74 8.65018C147.043 8.68119 147.264 8.94374 147.264 9.24874V11.6692C147.264 12.0697 146.892 12.3652 146.495 12.3066C146.312 12.2795 146.129 12.2579 145.948 12.242C145.516 12.2039 145.097 12.1849 144.69 12.1849C143.673 12.1849 142.707 12.3499 141.792 12.6798C140.889 12.9971 140.082 13.4667 139.37 14.0885C138.658 14.6977 138.074 15.4465 137.616 16.3349C137.159 17.2233 136.879 18.2386 136.777 19.3808V24.0302C136.777 24.3747 137.057 24.654 137.401 24.654H143.017C143.362 24.654 143.641 24.9333 143.641 25.2778V26.8857C143.641 27.2302 143.362 27.5095 143.017 27.5095H129.107C128.763 27.5095 128.483 27.2302 128.483 26.8857V25.2778Z" fill="#121212"/>
<path id="Vector_2" d="M99.877 18.3909C99.877 17.2106 100.125 16.0366 100.621 14.8691C101.116 13.7015 101.847 12.6544 102.813 11.728C103.792 10.7888 104.999 10.0274 106.436 9.44356C107.872 8.85977 109.525 8.56787 111.393 8.56787C111.99 8.56787 112.626 8.61229 113.3 8.70113C113.986 8.78997 114.666 8.93592 115.34 9.13898C116.026 9.34204 116.693 9.6149 117.342 9.95756C117.567 10.0722 117.785 10.1961 117.997 10.3292C118.455 10.6171 119.115 10.3062 119.115 9.76554V9.76554C119.115 9.42102 119.394 9.13898 119.739 9.13898H126.69C127.034 9.13898 127.313 9.41826 127.313 9.76277V11.7514C127.313 12.096 127.034 12.3752 126.69 12.3752H123.743C123.398 12.3752 123.119 12.6545 123.119 12.999V24.0302C123.119 24.3747 123.398 24.654 123.743 24.654H126.69C127.034 24.654 127.313 24.9333 127.313 25.2778V26.8857C127.313 27.2302 127.034 27.5095 126.69 27.5095H119.739C119.394 27.5095 119.115 27.2302 119.115 26.8857V26.5391C119.115 25.9835 118.417 25.6794 117.961 25.9971C117.786 26.1191 117.605 26.2362 117.418 26.3483C116.795 26.729 116.128 27.0463 115.416 27.3001C114.717 27.5539 113.986 27.7443 113.223 27.8712C112.473 28.0108 111.724 28.0806 110.974 28.0806C109.143 28.0806 107.535 27.8204 106.15 27.3001C104.764 26.7798 103.608 26.0817 102.68 25.206C101.752 24.3177 101.053 23.2897 100.582 22.1221C100.112 20.9418 99.877 19.6981 99.877 18.3909ZM104.014 18.2386C104.014 19.2919 104.199 20.2438 104.567 21.0941C104.949 21.9444 105.463 22.6678 106.112 23.2643C106.76 23.8608 107.529 24.324 108.419 24.654C109.308 24.984 110.268 25.1489 111.298 25.1489C111.895 25.1489 112.499 25.0918 113.109 24.9776C113.732 24.8507 114.329 24.6667 114.901 24.4255C115.486 24.1717 116.033 23.8608 116.541 23.4927C117.062 23.112 117.507 22.6678 117.876 22.1602C118.257 21.6398 118.556 21.0497 118.772 20.3897C119.001 19.7298 119.115 18.9937 119.115 18.1815C119.115 17.2804 118.905 16.4301 118.486 15.6305C118.066 14.8183 117.501 14.1076 116.789 13.4984C116.09 12.8892 115.27 12.407 114.329 12.0516C113.389 11.6963 112.397 11.5186 111.355 11.5186C110.313 11.5186 109.34 11.6772 108.438 11.9945C107.548 12.3118 106.773 12.7623 106.112 13.3461C105.463 13.9299 104.949 14.6406 104.567 15.4782C104.199 16.3032 104.014 17.2233 104.014 18.2386Z" fill="#121212"/>
<path id="Vector_3" d="M87.2566 12.9991C87.2566 12.6546 86.9773 12.3753 86.6328 12.3753H83.6858C83.3413 12.3753 83.062 12.096 83.062 11.7515V9.76287C83.062 9.41836 83.3413 9.13907 83.6858 9.13907H86.6328C86.9773 9.13907 87.2566 8.85979 87.2566 8.51527V5.70901C87.2566 5.45743 87.4077 5.23047 87.6399 5.13346L90.4915 3.94158C90.9025 3.76982 91.3559 4.07171 91.3559 4.51713V8.51527C91.3559 8.85979 91.6352 9.13907 91.9797 9.13907H100.208C100.553 9.13907 100.832 9.41836 100.832 9.76287V11.7515C100.832 12.096 100.553 12.3753 100.208 12.3753H91.9797C91.6352 12.3753 91.3559 12.6546 91.3559 12.9991V21.4559C91.3559 22.4077 91.6546 23.1184 92.252 23.588C92.8494 24.0449 93.6629 24.2733 94.6925 24.2733H99.4454C99.7899 24.2733 100.069 24.5526 100.069 24.8971V26.8858C100.069 27.2303 99.7899 27.5096 99.4454 27.5096H94.6925C93.6629 27.5096 92.6969 27.4017 91.7944 27.186C90.8919 26.9575 90.1039 26.5831 89.4302 26.0628C88.7565 25.5298 88.2226 24.8318 87.8286 23.9688C87.4473 23.0931 87.2566 22.0016 87.2566 20.6944V12.9991Z" fill="#121212"/>
<path id="Vector_4" d="M61.0864 23.165C61.0864 22.8205 61.3657 22.5412 61.7102 22.5412H64.6783C64.8879 22.5412 65.0808 22.6488 65.2112 22.813C65.5361 23.2222 65.9598 23.5885 66.4822 23.9119C67.1178 24.3053 67.8423 24.6289 68.6558 24.8828C69.482 25.1366 70.3845 25.3269 71.3632 25.4539C72.3419 25.5808 73.3461 25.6442 74.3757 25.6442C75.2273 25.6442 75.9518 25.5808 76.5493 25.4539C77.1467 25.3269 77.6297 25.1493 77.9983 24.9208C78.3669 24.6924 78.6338 24.4259 78.7991 24.1213C78.9643 23.8167 79.047 23.4804 79.047 23.1123C79.047 22.3382 78.4241 21.6782 77.1784 21.1325C75.9455 20.5741 73.988 20.1489 71.306 19.857C69.5265 19.6667 68.0393 19.4065 66.8445 19.0765C65.6496 18.7339 64.6836 18.3214 63.9464 17.8391C63.2219 17.3569 62.7007 16.8048 62.3829 16.1829C62.0779 15.5611 61.9253 14.8757 61.9253 14.127C61.9253 13.4797 62.1287 12.8388 62.5355 12.2042C62.9422 11.5697 63.5587 11.0049 64.3849 10.51C65.2238 10.0023 66.2661 9.59619 67.5118 9.2916C68.7702 8.98701 70.2446 8.83472 71.9352 8.83472C72.4818 8.83472 73.041 8.87279 73.613 8.94894C74.185 9.02508 74.7443 9.13931 75.2909 9.2916C75.8374 9.4312 76.3586 9.60254 76.8543 9.80559C77.1142 9.91203 77.36 10.0254 77.5919 10.1458C77.8563 10.283 78.189 10.0989 78.189 9.80107V9.80107C78.189 9.59329 78.3574 9.42486 78.5652 9.42486H81.6644C82.009 9.42486 82.2882 9.70414 82.2882 10.0487V13.941C82.2882 14.2855 82.009 14.5648 81.6644 14.5648H78.6293C78.3653 14.5648 78.1363 14.3934 77.994 14.171C77.8333 13.9196 77.6059 13.6765 77.3119 13.4416C76.867 13.0863 76.3395 12.7753 75.7294 12.5088C75.1193 12.2423 74.471 12.0329 73.7846 11.8806C73.0982 11.7156 72.45 11.6331 71.8399 11.6331C71.0391 11.6331 70.2828 11.6902 69.571 11.8045C68.8592 11.9187 68.2427 12.0837 67.7215 12.2994C67.2004 12.5025 66.7873 12.75 66.4822 13.0419C66.1771 13.3338 66.0246 13.6574 66.0246 14.0127C66.0246 14.3427 66.139 14.6409 66.3678 14.9075C66.6093 15.174 67.0034 15.4215 67.5499 15.6499C68.1092 15.8783 68.8464 16.0941 69.7616 16.2971C70.6895 16.4875 71.8399 16.6652 73.2126 16.8302C75.043 17.0586 76.5874 17.3505 77.8458 17.7059C79.1042 18.0612 80.1274 18.4991 80.9155 19.0194C81.7035 19.5271 82.2692 20.1235 82.6124 20.8089C82.9683 21.4942 83.1462 22.2811 83.1462 23.1694C83.1462 23.8167 82.9492 24.4513 82.5552 25.0731C82.1611 25.6823 81.5828 26.2344 80.8201 26.7293C80.0702 27.2116 79.1423 27.5987 78.0364 27.8906C76.9433 28.1952 75.6849 28.3475 74.2613 28.3475C73.3461 28.3475 72.4881 28.3094 71.6873 28.2332C70.8865 28.1698 70.1175 28.0556 69.3803 27.8906C68.6431 27.7256 67.9313 27.5162 67.2449 27.2624C66.8279 27.1082 66.411 26.9329 65.994 26.7366C65.6236 26.5621 65.1857 26.8252 65.1857 27.2347V27.2347C65.1857 27.5338 64.9432 27.7764 64.644 27.7764H61.7102C61.3657 27.7764 61.0864 27.4971 61.0864 27.1526V23.165Z" fill="#121212"/>
<path id="Vector_5" d="M147.696 22.8502C147.696 22.5057 147.975 22.2264 148.32 22.2264H151.306C151.515 22.2264 151.708 22.3336 151.838 22.4974C152.165 22.9077 152.591 23.2749 153.116 23.599C153.754 23.993 154.482 24.3171 155.299 24.5713C156.129 24.8255 157.036 25.0162 158.019 25.1432C159.002 25.2703 160.011 25.3339 161.045 25.3339C161.9 25.3339 162.628 25.2703 163.228 25.1432C163.828 25.0162 164.314 24.8382 164.684 24.6094C165.054 24.3807 165.322 24.1138 165.488 23.8087C165.654 23.5037 165.737 23.1669 165.737 22.7983C165.737 22.023 165.112 21.3621 163.86 20.8156C162.622 20.2564 160.656 19.8306 157.961 19.5383C156.174 19.3477 154.68 19.0871 153.48 18.7567C152.28 18.4135 151.309 18.0004 150.569 17.5175C149.841 17.0345 149.317 16.4816 148.998 15.8589C148.692 15.2361 148.539 14.5498 148.539 13.7999C148.539 13.1517 148.743 12.5099 149.151 11.8744C149.56 11.2389 150.179 10.6733 151.009 10.1777C151.852 9.66929 152.899 9.26258 154.15 8.95755C155.414 8.65252 156.895 8.5 158.593 8.5C159.143 8.5 159.704 8.53813 160.279 8.61439C160.853 8.69064 161.415 8.80503 161.964 8.95755C162.513 9.09735 163.037 9.26893 163.535 9.47229C163.796 9.57915 164.044 9.69303 164.278 9.81392C164.542 9.9511 164.875 9.76647 164.875 9.46816V9.46816C164.875 9.25986 165.044 9.091 165.253 9.091H168.369C168.714 9.091 168.993 9.37028 168.993 9.7148V13.6146C168.993 13.9591 168.714 14.2384 168.369 14.2384H165.315C165.052 14.2384 164.823 14.0673 164.68 13.8452C164.519 13.593 164.29 13.3491 163.994 13.1136C163.548 12.7577 163.018 12.4463 162.405 12.1794C161.792 11.9125 161.141 11.7028 160.451 11.5503C159.762 11.3851 159.111 11.3025 158.498 11.3025C157.693 11.3025 156.934 11.3597 156.219 11.4741C155.504 11.5884 154.884 11.7537 154.361 11.9697C153.837 12.1731 153.422 12.4209 153.116 12.7132C152.809 13.0056 152.656 13.3297 152.656 13.6855C152.656 14.016 152.771 14.3147 153.001 14.5816C153.244 14.8485 153.639 15.0963 154.188 15.3251C154.75 15.5538 155.491 15.7699 156.41 15.9733C157.342 16.1639 158.498 16.3418 159.877 16.5071C161.715 16.7358 163.267 17.0282 164.531 17.384C165.795 17.7399 166.823 18.1784 167.614 18.6995C168.406 19.2079 168.974 19.8052 169.319 20.4915C169.676 21.1778 169.855 21.9658 169.855 22.8555C169.855 23.5037 169.657 24.1392 169.261 24.762C168.866 25.372 168.285 25.9249 167.518 26.4206C166.765 26.9035 165.833 27.2912 164.722 27.5835C163.624 27.8885 162.36 28.041 160.93 28.041C160.011 28.041 159.149 28.0029 158.345 27.9267C157.54 27.8631 156.768 27.7487 156.027 27.5835C155.287 27.4183 154.571 27.2086 153.882 26.9544C153.462 26.7997 153.043 26.6238 152.623 26.4267C152.252 26.2523 151.814 26.516 151.814 26.9261V26.9261C151.814 27.226 151.57 27.4691 151.271 27.4691H148.32C147.975 27.4691 147.696 27.1898 147.696 26.8453V22.8502Z" fill="#121212"/>
<path id="Vector_6" d="M33.7935 25.6485C33.7935 25.3039 34.0727 25.0247 34.4173 25.0247H38.5561C38.9006 25.0247 39.1799 24.7454 39.1799 24.4009V12.5412C39.1799 12.0259 38.5906 11.7329 38.1797 12.0438L35.4543 14.1062C35.0434 14.4171 34.4541 14.124 34.4541 13.6087V11.5075C34.4541 11.3135 34.5443 11.1306 34.6982 11.0125L41.8353 5.53906C42.2456 5.22436 42.8387 5.51692 42.8387 6.03405V24.4009C42.8387 24.7454 43.118 25.0247 43.4625 25.0247H46.7883C47.1328 25.0247 47.4121 25.3039 47.4121 25.6485V27.1118C47.4121 27.4563 47.1328 27.7356 46.7883 27.7356H34.4173C34.0727 27.7356 33.7935 27.4563 33.7935 27.1118V25.6485Z" fill="#121212"/>
<path id="Vector_7" d="M46.4185 25.6485C46.4185 25.3039 46.6977 25.0247 47.0423 25.0247H51.1811C51.5256 25.0247 51.8049 24.7454 51.8049 24.4009V12.4438C51.8049 11.9474 51.2531 11.6498 50.8384 11.9226L48.0456 13.7594C47.6309 14.0323 47.0791 13.7347 47.0791 13.2383V11.0538C47.0791 10.8519 47.1768 10.6624 47.3414 10.5454L54.4784 5.47019C54.8914 5.1765 55.4637 5.47178 55.4637 5.97856V24.4009C55.4637 24.7454 55.743 25.0247 56.0875 25.0247H59.4133C59.7578 25.0247 60.0371 25.3039 60.0371 25.6485V27.1118C60.0371 27.4563 59.7578 27.7356 59.4133 27.7356H47.0423C46.6977 27.7356 46.4185 27.4563 46.4185 27.1118V25.6485Z" fill="#121212"/>
<g id="Group 11">
<path id="Polygon 30" d="M16.9157 1.79024C17.1347 1.29487 17.8377 1.29487 18.0567 1.79024L21.3668 9.27616C21.722 10.0795 21.722 10.9955 21.3668 11.7988L18.0567 19.2847C17.8377 19.7801 17.1347 19.7801 16.9157 19.2847L13.6056 11.7988C13.2504 10.9955 13.2504 10.0795 13.6056 9.27616L16.9157 1.79024Z" fill="#121212"/>
<path id="Polygon 31" d="M1.97797 11.908C1.75689 11.7284 1.87284 11.3708 2.15738 11.3546L11.4053 10.8296C11.6242 10.8171 11.7872 11.0283 11.7196 11.2368L9.65695 17.5985C9.58935 17.807 9.33337 17.8827 9.16329 17.7446L1.97797 11.908Z" fill="#121212"/>
<path id="Polygon 32" d="M33.2813 11.908C33.5024 11.7284 33.3864 11.3708 33.1019 11.3546L23.854 10.8296C23.6351 10.8171 23.4721 11.0283 23.5397 11.2368L25.6023 17.5985C25.6699 17.807 25.9259 17.8827 26.096 17.7446L33.2813 11.908Z" fill="#121212"/>
<path id="Polygon 34" d="M18.021 23.3679C17.8972 23.65 17.9981 23.9803 18.2586 24.1454L26.2803 29.2281C26.7754 29.5418 27.3905 29.0623 27.2065 28.5061L22.8005 15.1858C22.6209 14.6429 21.8663 14.6069 21.6366 15.1303L18.021 23.3679Z" fill="#121212"/>
<path id="Polygon 35" d="M16.7915 23.3601C16.9153 23.6422 16.8144 23.9725 16.5539 24.1376L8.53222 29.2203C8.03712 29.534 7.422 29.0545 7.60599 28.4983L12.012 15.178C12.1916 14.6351 12.9462 14.5991 13.1759 15.1224L16.7915 23.3601Z" fill="#121212"/>
</g>
</g>
</svg>
